<?xml version="1.0" encoding="utf-8"?>
<!-- Generator: Adobe Illustrator 20.0.0, SVG Export Plug-In . SVG Version: 6.00 Build 0)  -->
<svg version="1.0" id="Layer_1" xmlns="http://www.w3.org/2000/svg" xmlns:xlink="http://www.w3.org/1999/xlink" x="0px" y="0px"
	 viewBox="0 0 16 16" style="enable-background:new 0 0 16 16;" xml:space="preserve">
<g>
	<g>
		<path id="newPath" d="M13.9,7.4c-0.5,0-0.9,0.4-0.9,0.9V13c0,0.3-0.3,0.6-0.6,0.6H3c-0.3,0-0.6-0.3-0.6-0.6V3.6C2.4,3.3,2.7,3,3,3
			h4.7c0.5,0,0.9-0.4,0.9-0.9c0-0.5-0.4-0.9-0.9-0.9H3c-1.4,0-2.5,1.1-2.5,2.5V13c0,1.4,1.1,2.5,2.5,2.5h9.4c1.4,0,2.5-1.1,2.5-2.5
			V8.3C14.9,7.8,14.4,7.4,13.9,7.4z M14.9,0.5h-4.7c-0.3,0-0.5,0.2-0.6,0.4c-0.1,0.2,0,0.5,0.1,0.7l1.7,1.7L7.6,7
			c-0.4,0.4-0.4,1,0,1.3c0.2,0.2,0.4,0.3,0.7,0.3S8.8,8.5,9,8.4l3.8-3.8l1.7,1.7c0.1,0.1,0.3,0.2,0.4,0.2c0.1,0,0.2,0,0.2,0
			c0.2-0.1,0.4-0.3,0.4-0.6V1.1C15.5,0.8,15.2,0.5,14.9,0.5z"/>
	</g>
</g>
</svg>
